<?xml version="1.0" encoding="utf-8"?>
<!-- Generator: Adobe Illustrator 16.0.0, SVG Export Plug-In . SVG Version: 6.00 Build 0)  -->
<!DOCTYPE svg PUBLIC "-//W3C//DTD SVG 1.1//EN" "http://www.w3.org/Graphics/SVG/1.1/DTD/svg11.dtd">
<svg version="1.1" id="Layer_1" xmlns="http://www.w3.org/2000/svg" xmlns:xlink="http://www.w3.org/1999/xlink" x="0px" y="0px"
	 width="313.507px" height="99.712px" viewBox="0 0 313.507 99.712" enable-background="new 0 0 313.507 99.712"
	 xml:space="preserve">
<g>
	<path fill-rule="evenodd" clip-rule="evenodd" fill="#D6E3F6" d="M217.803,51.253c0,1.561,1.195,2.808,2.859,2.808h20.277
		c1.561,0,2.809-1.247,2.809-2.808c0-1.611-1.248-2.807-2.809-2.807h-20.277C218.998,48.447,217.803,49.642,217.803,51.253
		L217.803,51.253z M210.16,48.447c-1.559,0-2.807,1.195-2.807,2.807c0,1.561,1.248,2.808,2.807,2.808h1.092
		c1.561,0,2.859-1.247,2.859-2.808c0-1.611-1.299-2.807-2.859-2.807H210.16z"/>
	<path fill-rule="evenodd" clip-rule="evenodd" fill="#D6E3F6" d="M210.16,48.808c-1.395,0-2.445,1.051-2.445,2.445
		c0,1.351,1.096,2.446,2.445,2.446h1.092c1.379,0,2.498-1.096,2.498-2.446c0-1.371-1.098-2.445-2.498-2.445H210.16L210.16,48.808z
		 M211.252,54.422h-1.092c-1.746,0-3.17-1.421-3.17-3.169c0-1.776,1.391-3.168,3.17-3.168h1.092c1.805,0,3.221,1.392,3.221,3.168
		C214.473,53.001,213.027,54.422,211.252,54.422L211.252,54.422z M220.662,48.808c-1.445,0-2.496,1.028-2.496,2.445
		c0,1.396,1.074,2.446,2.496,2.446h20.277c1.352,0,2.447-1.096,2.447-2.446c0-1.395-1.051-2.445-2.447-2.445H220.662L220.662,48.808
		z M240.939,54.422h-20.277c-1.836,0-3.221-1.362-3.221-3.169c0-1.835,1.355-3.168,3.221-3.168h20.277
		c1.777,0,3.172,1.392,3.172,3.168C244.111,53.001,242.688,54.422,240.939,54.422z"/>
	<path fill-rule="evenodd" clip-rule="evenodd" fill="#D6E3F6" d="M217.803,25.312c0,1.561,1.195,2.807,2.859,2.807h20.277
		c1.561,0,2.809-1.246,2.809-2.807c0-1.611-1.248-2.807-2.809-2.807h-20.277C218.998,22.505,217.803,23.701,217.803,25.312
		L217.803,25.312z M210.16,22.505c-1.559,0-2.807,1.195-2.807,2.807c0,1.561,1.248,2.807,2.807,2.807h1.092
		c1.561,0,2.859-1.246,2.859-2.807c0-1.611-1.299-2.807-2.859-2.807H210.16z"/>
	<path fill-rule="evenodd" clip-rule="evenodd" fill="#D6E3F6" d="M210.16,22.866c-1.395,0-2.445,1.052-2.445,2.446
		c0,1.351,1.096,2.445,2.445,2.445h1.092c1.379,0,2.498-1.095,2.498-2.445c0-1.371-1.098-2.446-2.498-2.446H210.16L210.16,22.866z
		 M211.252,28.48h-1.092c-1.746,0-3.17-1.42-3.17-3.168c0-1.775,1.391-3.168,3.17-3.168h1.092c1.805,0,3.221,1.393,3.221,3.168
		C214.473,27.06,213.027,28.48,211.252,28.48L211.252,28.48z M220.662,22.866c-1.445,0-2.496,1.03-2.496,2.446
		c0,1.396,1.074,2.445,2.496,2.445h20.277c1.352,0,2.447-1.095,2.447-2.445c0-1.395-1.051-2.446-2.447-2.446H220.662L220.662,22.866
		z M240.939,28.48h-20.277c-1.836,0-3.221-1.36-3.221-3.168c0-1.835,1.355-3.168,3.221-3.168h20.277
		c1.777,0,3.172,1.393,3.172,3.168C244.111,27.06,242.688,28.48,240.939,28.48z"/>
	<path fill-rule="evenodd" clip-rule="evenodd" fill="#3BB9DF" d="M210.908,11.378c-1.008,0.01-9.955,0.372-9.955,9.955v32.635
		c0.01,1.008,0.373,9.954,9.955,9.954h29.275c1.041-0.012,9.963-0.385,9.963-9.954V21.333c-0.008-1.008-0.371-9.955-9.955-9.955
		H210.908L210.908,11.378z M240.191,69.331h-29.283c-12.152,0-15.363-10.05-15.363-15.362V21.333
		c0-12.151,10.051-15.363,15.363-15.363h29.283c12.154,0,15.363,10.05,15.363,15.363v32.635
		C255.555,66.12,245.506,69.331,240.191,69.331z"/>
	<path fill-rule="evenodd" clip-rule="evenodd" fill="#A8C4EB" d="M233.297,38.233c0-1.56-1.195-2.807-2.857-2.807h-20.277
		c-1.561,0-2.809,1.247-2.809,2.807c0,1.611,1.248,2.808,2.809,2.808h20.277C232.102,41.041,233.297,39.844,233.297,38.233
		L233.297,38.233z M240.941,41.041c1.559,0,2.807-1.196,2.807-2.808c0-1.56-1.248-2.807-2.807-2.807h-1.092
		c-1.561,0-2.859,1.247-2.859,2.807c0,1.611,1.299,2.808,2.859,2.808H240.941z"/>
	<path fill-rule="evenodd" clip-rule="evenodd" fill="#A8C4EB" d="M210.16,35.685c-1.428,0-2.549,1.12-2.549,2.549
		c0,1.451,1.096,2.547,2.549,2.547h20.277c1.508,0,2.602-1.07,2.602-2.547c0-1.454-1.119-2.549-2.602-2.549H210.16L210.16,35.685z
		 M230.438,41.299H210.16c-1.721,0-3.066-1.347-3.066-3.065c0-1.691,1.377-3.066,3.066-3.066h20.277
		c1.779,0,3.121,1.318,3.121,3.066C233.559,40.009,232.244,41.299,230.438,41.299L230.438,41.299z M239.85,35.685
		c-1.434,0-2.6,1.144-2.6,2.549c0,1.428,1.141,2.547,2.6,2.547h1.092c1.451,0,2.549-1.096,2.549-2.547
		c0-1.405-1.143-2.549-2.549-2.549H239.85L239.85,35.685z M240.941,41.299h-1.092c-1.748,0-3.119-1.347-3.119-3.065
		c0-1.691,1.4-3.066,3.119-3.066h1.092c1.691,0,3.064,1.375,3.064,3.066C244.006,39.953,242.662,41.299,240.941,41.299z"/>
	<path fill-rule="evenodd" clip-rule="evenodd" fill="#3BB9DF" d="M8.134,84.704c0,2.16,1.699,3.9,3.72,3.92
		c2.081-0.02,3.761-1.76,3.761-3.92c0-2.161-1.68-3.881-3.761-3.881c-1.979,0-3.64,1.641-3.72,3.721V84.704L8.134,84.704z
		 M7.155,84.904v-0.2v-0.201v-4.18c0-0.26,0.219-0.479,0.48-0.479c0.279,0,0.499,0.22,0.499,0.479v1.42
		c0.841-1.139,2.2-1.899,3.72-1.899c2.64,0,4.74,2.181,4.74,4.86c0,2.66-2.101,4.879-4.74,4.879c-1.52,0-2.879-0.76-3.72-1.918
		v5.599c0,0.261-0.22,0.479-0.499,0.479c-0.262,0-0.48-0.219-0.48-0.479V84.904z"/>
	<path fill-rule="evenodd" clip-rule="evenodd" fill="#3BB9DF" d="M19.753,80.344c0-0.281,0.22-0.48,0.499-0.48
		c0.241,0,0.461,0.199,0.461,0.48v2.158c0.041-0.08,0.082-0.16,0.141-0.238c0.74-1.16,2.04-2.4,3.921-2.4
		c0.259,0,0.479,0.199,0.479,0.48c0,0.259-0.22,0.479-0.479,0.479c-1.28,0-2.16,0.719-2.842,1.6
		c-0.659,0.881-1.039,1.881-1.179,2.281c-0.041,0.078-0.041,0.121-0.041,0.159v4.3c0,0.281-0.22,0.48-0.461,0.48
		c-0.279,0-0.499-0.199-0.499-0.48V80.344z"/>
	<path fill-rule="evenodd" clip-rule="evenodd" fill="#3BB9DF" d="M34.696,84.743c0-2.199-1.66-3.959-3.68-3.959
		c-2.001,0-3.682,1.76-3.682,3.959c0,2.2,1.681,3.941,3.682,3.941C33.036,88.684,34.696,86.943,34.696,84.743L34.696,84.743z
		 M35.654,80.323v8.84c0,0.262-0.218,0.48-0.478,0.48c-0.263,0-0.48-0.219-0.48-0.48v-1.459c-0.841,1.16-2.182,1.939-3.68,1.939
		c-2.581,0-4.642-2.221-4.642-4.9c0-2.679,2.061-4.899,4.642-4.899c1.498,0,2.839,0.76,3.68,1.92v-1.44
		c0-0.28,0.218-0.479,0.48-0.479C35.436,79.843,35.654,80.042,35.654,80.323z"/>
	<path fill-rule="evenodd" clip-rule="evenodd" fill="#3BB9DF" d="M38.514,84.723c0-2.719,2.24-4.88,5.04-4.88
		c1.161,0,2.26,0.399,3.12,1.08c0.2,0.14,0.24,0.44,0.061,0.659c-0.16,0.18-0.441,0.241-0.661,0.081
		c-0.699-0.56-1.58-0.88-2.52-0.88c-2.28,0-4.08,1.778-4.08,3.939c0,2.199,1.8,3.961,4.08,3.961c0.939,0,1.82-0.32,2.52-0.86
		c0.22-0.161,0.501-0.101,0.661,0.08c0.18,0.219,0.14,0.519-0.101,0.7c-0.82,0.64-1.919,1.04-3.08,1.04
		C40.754,89.644,38.514,87.483,38.514,84.723z"/>
	<path fill-rule="evenodd" clip-rule="evenodd" fill="#3BB9DF" d="M53.454,80.323c0,0.24-0.24,0.48-0.48,0.48h-1.259v7.139
		c0,0.48,0.48,0.722,0.72,0.722c0.24,0,0.501,0.259,0.501,0.501c0,0.238-0.261,0.479-0.501,0.479c-0.979,0-1.721-0.722-1.721-1.702
		v-7.139h-1.22c-0.48,0-0.48-0.24-0.48-0.48c0-0.239,0-0.479,0.48-0.479h1.22v-3.641c0-0.24,0.239-0.479,0.48-0.479
		c0.261,0,0.521,0.239,0.521,0.479v3.641h1.259C53.213,79.843,53.454,80.083,53.454,80.323z"/>
	<path fill-rule="evenodd" clip-rule="evenodd" fill="#3BB9DF" d="M57.453,80.323c0-0.279,0.219-0.479,0.48-0.479
		c0.28,0,0.499,0.2,0.499,0.479v8.842c0,0.26-0.219,0.479-0.499,0.479c-0.262,0-0.48-0.22-0.48-0.479V80.323L57.453,80.323z
		 M57.453,77.122c0-0.26,0.219-0.479,0.48-0.479c0.28,0,0.499,0.219,0.499,0.479v0.461c0,0.281-0.219,0.521-0.499,0.521
		c-0.262,0-0.48-0.24-0.48-0.521V77.122z"/>
	<path fill-rule="evenodd" clip-rule="evenodd" fill="#3BB9DF" d="M61.752,84.723c0-2.719,2.24-4.88,5.042-4.88
		c1.159,0,2.259,0.399,3.118,1.08c0.2,0.14,0.24,0.44,0.061,0.659c-0.16,0.18-0.439,0.241-0.661,0.081
		c-0.698-0.56-1.58-0.88-2.518-0.88c-2.282,0-4.083,1.778-4.083,3.939c0,2.199,1.801,3.961,4.083,3.961
		c0.938,0,1.819-0.32,2.518-0.86c0.222-0.161,0.501-0.101,0.661,0.08c0.18,0.219,0.14,0.519-0.102,0.7
		c-0.818,0.64-1.918,1.04-3.077,1.04C63.993,89.644,61.752,87.483,61.752,84.723z"/>
	<path fill-rule="evenodd" clip-rule="evenodd" fill="#3BB9DF" d="M73.292,83.984h7.42c-0.32-1.841-1.88-3.181-3.679-3.181
		C75.191,80.803,73.653,82.124,73.292,83.984L73.292,83.984z M72.272,84.764c0-2.722,2.12-4.921,4.761-4.921
		c2.52,0,4.519,1.999,4.72,4.56v0.02v0.061c0,0.26-0.222,0.439-0.479,0.439h-8.042c0.101,2.142,1.782,3.762,3.802,3.762
		c1.3,0,2.499-0.681,3.16-1.781c0.139-0.24,0.438-0.279,0.639-0.158c0.221,0.158,0.299,0.439,0.16,0.678
		c-0.84,1.34-2.3,2.221-3.959,2.221C74.392,89.643,72.272,87.444,72.272,84.764z"/>
	<path fill-rule="evenodd" clip-rule="evenodd" fill="#3BB9DF" d="M97.211,84.743c0-2.199-1.659-3.959-3.68-3.959
		c-2.001,0-3.68,1.76-3.68,3.959c0,2.2,1.679,3.941,3.68,3.941C95.552,88.684,97.211,86.943,97.211,84.743L97.211,84.743z
		 M98.171,80.323v8.84c0,0.262-0.221,0.48-0.479,0.48c-0.261,0-0.481-0.219-0.481-0.48v-1.459c-0.84,1.16-2.18,1.939-3.68,1.939
		c-2.581,0-4.64-2.221-4.64-4.9c0-2.679,2.059-4.899,4.64-4.899c1.5,0,2.84,0.76,3.68,1.92v-1.44c0-0.28,0.221-0.479,0.481-0.479
		C97.951,79.843,98.171,80.042,98.171,80.323z"/>
	<path fill-rule="evenodd" clip-rule="evenodd" fill="#3BB9DF" d="M108.531,83.842c0-1.66-1.34-3.02-3.02-3.02
		c-1.66,0-3,1.359-3.04,3.02v5.321v0.08c-0.02,0.079-0.039,0.159-0.1,0.22c-0.081,0.12-0.221,0.18-0.36,0.18h-0.119
		c-0.142-0.039-0.262-0.139-0.321-0.26c-0.019-0.02-0.019-0.04-0.019-0.061c0-0.02-0.022-0.041-0.022-0.041v-0.118v-5.321v-0.158
		v-3.34c0-0.26,0.202-0.48,0.481-0.48c0.261,0,0.46,0.221,0.46,0.48v0.938c0.72-0.86,1.82-1.419,3.04-1.419
		c2.199,0,3.98,1.799,3.98,3.979v5.321c0,0.28-0.221,0.479-0.48,0.479c-0.261,0-0.48-0.199-0.48-0.479V83.842z"/>
	<path fill-rule="evenodd" clip-rule="evenodd" fill="#3BB9DF" d="M112.069,80.303c0-0.26,0.221-0.46,0.463-0.46
		c0.278,0,0.497,0.2,0.497,0.46v5.32c0,1.68,1.342,3.02,3.001,3.02c1.68,0,3.021-1.34,3.04-3.02v-5.32c0-0.08,0.021-0.182,0.08-0.24
		c0-0.02,0.02-0.039,0.02-0.061c0.021,0,0.021-0.02,0.042-0.02c0.039-0.06,0.118-0.102,0.18-0.121h0.039
		c0.02,0,0.04-0.019,0.06-0.019h0.061h0.06c0.08,0.019,0.161,0.061,0.241,0.1c0.04,0.04,0.1,0.101,0.119,0.16
		c0.04,0.062,0.06,0.14,0.06,0.2v5.32v0.18v3.061c0,2.559-2.079,4.601-4.659,4.601c-0.721,0-1.401-0.181-2.021-0.46
		c-0.22-0.142-0.321-0.422-0.201-0.641c0.121-0.24,0.382-0.3,0.621-0.24c0.48,0.24,1.041,0.381,1.601,0.381
		c2.039,0,3.68-1.621,3.699-3.641v-0.639c-0.739,0.839-1.82,1.398-3.04,1.398c-2.181-0.021-3.961-1.8-3.961-4V80.303z"/>
	<path fill-rule="evenodd" clip-rule="evenodd" fill="#3BB9DF" d="M126.63,89.563c-0.1-0.039-0.16-0.119-0.2-0.221l-3.682-8.76
		c-0.1-0.24,0.021-0.52,0.242-0.619c0.238-0.101,0.54,0.02,0.619,0.26l3.261,7.719l2.261-5.38c0.078-0.179,0.278-0.298,0.458-0.298
		c0.2,0,0.4,0.119,0.48,0.298l2.26,5.38l3.241-7.719c0.1-0.24,0.397-0.36,0.619-0.26c0.241,0.1,0.361,0.379,0.26,0.619l-3.661,8.722
		c-0.039,0.099-0.099,0.178-0.179,0.239c-0.079,0.059-0.16,0.101-0.24,0.101h-0.04h-0.059c-0.161-0.021-0.343-0.142-0.382-0.302
		l-0.019-0.02l-2.281-5.42l-2.259,5.401c0,0-0.021,0.019-0.021,0.038c-0.059,0.182-0.26,0.302-0.419,0.302
		c-0.061,0-0.121-0.021-0.18-0.042C126.67,89.602,126.649,89.583,126.63,89.563z"/>
	<path fill-rule="evenodd" clip-rule="evenodd" fill="#3BB9DF" d="M146.065,83.703c0-1.72-1.4-2.88-3.119-2.88
		c-1.701,0-3.101,1.16-3.101,2.88v5.46v0.061c0,0.04-0.021,0.059-0.021,0.08c-0.019,0.04-0.019,0.061-0.038,0.08
		c-0.062,0.119-0.16,0.2-0.302,0.24c0,0-0.019,0.02-0.039,0.02h-0.04h-0.06c-0.139,0-0.28-0.06-0.38-0.16
		c-0.041-0.059-0.061-0.1-0.08-0.159c-0.021-0.061-0.021-0.101-0.021-0.161v-5.46v-0.158v-7.422c0-0.259,0.221-0.479,0.48-0.479
		c0.28,0,0.5,0.221,0.5,0.479v5.159c0.74-0.879,1.859-1.438,3.101-1.438c2.259,0,4.1,1.6,4.1,3.859v5.46
		c0,0.262-0.22,0.48-0.499,0.48c-0.263,0-0.481-0.219-0.481-0.48V83.703z"/>
	<path fill-rule="evenodd" clip-rule="evenodd" fill="#3BB9DF" d="M150.552,83.984h7.421c-0.32-1.841-1.88-3.181-3.679-3.181
		C152.454,80.803,150.914,82.124,150.552,83.984L150.552,83.984z M149.533,84.764c0-2.722,2.119-4.921,4.762-4.921
		c2.519,0,4.518,1.999,4.718,4.56v0.02v0.061c0,0.26-0.219,0.439-0.479,0.439h-8.04c0.1,2.142,1.78,3.762,3.801,3.762
		c1.3,0,2.498-0.681,3.16-1.781c0.139-0.24,0.438-0.279,0.639-0.158c0.222,0.158,0.3,0.439,0.159,0.678
		c-0.841,1.34-2.3,2.221-3.958,2.221C151.652,89.643,149.533,87.444,149.533,84.764z"/>
	<path fill-rule="evenodd" clip-rule="evenodd" fill="#3BB9DF" d="M161.393,80.344c0-0.281,0.219-0.48,0.5-0.48
		c0.24,0,0.461,0.199,0.461,0.48v2.158c0.039-0.08,0.08-0.16,0.141-0.238c0.74-1.16,2.039-2.4,3.918-2.4
		c0.26,0,0.482,0.199,0.482,0.48c0,0.259-0.223,0.479-0.482,0.479c-1.279,0-2.158,0.719-2.84,1.6
		c-0.658,0.881-1.039,1.881-1.18,2.281c-0.039,0.078-0.039,0.121-0.039,0.159v4.3c0,0.281-0.221,0.48-0.461,0.48
		c-0.281,0-0.5-0.199-0.5-0.48V80.344z"/>
	<path fill-rule="evenodd" clip-rule="evenodd" fill="#3BB9DF" d="M168.893,83.984h7.42c-0.32-1.841-1.881-3.181-3.68-3.181
		C170.793,80.803,169.252,82.124,168.893,83.984L168.893,83.984z M167.873,84.764c0-2.722,2.119-4.921,4.76-4.921
		c2.52,0,4.52,1.999,4.719,4.56v0.02v0.061c0,0.26-0.219,0.439-0.479,0.439h-8.041c0.1,2.142,1.781,3.762,3.801,3.762
		c1.301,0,2.5-0.681,3.16-1.781c0.139-0.24,0.441-0.279,0.641-0.158c0.221,0.158,0.299,0.439,0.158,0.678
		c-0.84,1.34-2.299,2.221-3.959,2.221C169.992,89.643,167.873,87.444,167.873,84.764z"/>
	<path fill-rule="evenodd" clip-rule="evenodd" fill="#76A2D4" d="M258.707,6.697h-1.039v3.491c0,0.203-0.158,0.36-0.359,0.36
		c-0.197,0-0.359-0.157-0.359-0.36V6.697h-1.033c-0.203,0-0.361-0.17-0.361-0.366c0-0.203,0.158-0.36,0.361-0.36h2.791
		c0.197,0,0.361,0.157,0.361,0.36C259.068,6.527,258.904,6.697,258.707,6.697z"/>
	<path fill-rule="evenodd" clip-rule="evenodd" fill="#76A2D4" d="M263.889,6.331v3.857c0,0.195-0.17,0.36-0.365,0.36
		c-0.203,0-0.359-0.165-0.359-0.36V7.435l-0.943,1.307c-0.072,0.1-0.176,0.152-0.295,0.152h-0.006h-0.006
		c-0.117,0-0.229-0.053-0.299-0.152l-0.936-1.307v2.753c0,0.195-0.164,0.36-0.369,0.36c-0.195,0-0.357-0.165-0.357-0.36V6.331
		c0-0.197,0.162-0.361,0.357-0.361h0.021c0.104,0,0.223,0.053,0.287,0.151l1.301,1.806l1.303-1.806
		c0.072-0.099,0.176-0.151,0.293-0.151h0.008C263.719,5.976,263.889,6.133,263.889,6.331z"/>
	<g>
		<path fill-rule="evenodd" clip-rule="evenodd" fill="#3BB9DF" d="M15.462,30.353v29.044c0,2.234-1.713,4.022-4.021,4.022
			c-2.234,0-4.022-1.788-4.022-4.022V30.353c0-2.384,1.788-4.097,4.022-4.097C13.75,26.256,15.462,27.969,15.462,30.353
			L15.462,30.353z M15.462,16.874c0,2.234-1.713,4.095-4.021,4.095c-2.234,0-4.022-1.86-4.022-4.095v-1.564
			c0-2.233,1.788-4.022,4.022-4.022c2.309,0,4.021,1.789,4.021,4.022V16.874z"/>
		<path fill-rule="evenodd" clip-rule="evenodd" fill="#3BB9DF" d="M55.751,41.673v17.8c0,2.158-1.714,3.946-3.873,3.946
			c-2.086,0-3.948-1.788-3.948-3.946v-17.8c0-4.171-3.5-7.521-7.743-7.521c-4.172,0-7.448,3.351-7.448,7.521v17.8
			c0,0.223,0,0.446-0.149,0.744c-0.372,1.789-2.011,3.202-3.948,3.202c-2.232,0-3.945-1.788-3.945-3.946v-17.8V30.129
			c0-2.16,1.713-3.947,3.945-3.947c1.565,0,2.979,0.896,3.651,2.309c2.232-1.413,4.989-2.309,7.895-2.309
			C48.825,26.182,55.751,33.257,55.751,41.673z"/>
		<path fill-rule="evenodd" clip-rule="evenodd" fill="#3BB9DF" d="M81.7,34.299c-2.681,0-5.139,1.119-6.999,3.055
			c-1.863,1.863-2.98,4.542-2.98,7.521c0,2.831,1.117,5.511,2.98,7.373c1.86,1.937,4.318,3.054,6.999,3.054
			c2.757,0,5.139-1.117,7-3.054c1.863-1.862,2.98-4.542,2.98-7.373c0-2.979-1.117-5.658-2.98-7.521
			C86.838,35.418,84.457,34.299,81.7,34.299L81.7,34.299z M99.797,59.398c0,2.159-1.787,4.022-4.021,4.022
			c-2.013,0-3.576-1.416-3.948-3.203c-2.831,1.938-6.404,3.203-10.129,3.203c-10.055,0-18.096-8.491-18.096-18.545
			c0-10.201,8.041-18.693,18.096-18.693c3.65,0,7.224,1.191,9.98,3.129V15.309c0-2.159,1.785-4.021,4.097-4.021
			c2.233,0,4.021,1.862,4.021,4.021V44.8v0.075V59.398z"/>
		<path fill-rule="evenodd" clip-rule="evenodd" fill="#3BB9DF" d="M118.454,30.353v29.044c0,2.234-1.713,4.022-4.021,4.022
			c-2.233,0-4.023-1.788-4.023-4.022V30.353c0-2.384,1.79-4.097,4.023-4.097C116.741,26.256,118.454,27.969,118.454,30.353
			L118.454,30.353z M118.454,16.874c0,2.234-1.713,4.095-4.021,4.095c-2.233,0-4.023-1.86-4.023-4.095v-1.564
			c0-2.233,1.79-4.022,4.023-4.022c2.309,0,4.021,1.789,4.021,4.022V16.874z"/>
		<path fill-rule="evenodd" clip-rule="evenodd" fill="#3BB9DF" d="M127.687,44.875c0-10.352,8.639-18.618,18.916-18.692
			c4.468,0,8.639,1.638,11.841,4.096c1.714,1.34,2.011,3.872,0.82,5.511c-1.489,1.788-3.873,2.086-5.586,0.744
			c-1.936-1.414-4.318-2.383-7.075-2.383c-6.031,0-11.021,4.991-11.021,10.725c0,5.734,4.99,10.649,11.021,10.649
			c2.683,0,5.14-0.967,7.075-2.383c1.638-1.266,4.097-0.968,5.586,0.818c1.19,1.64,0.894,4.022-0.82,5.513
			c-3.202,2.307-7.373,3.947-11.841,3.947C136.326,63.42,127.687,55.08,127.687,44.875z"/>
		<path fill-rule="evenodd" clip-rule="evenodd" fill="#3BB9DF" d="M177.258,30.353v29.044c0,2.234-1.713,4.022-4.021,4.022
			c-2.232,0-4.021-1.788-4.021-4.022V30.353c0-2.384,1.789-4.097,4.021-4.097C175.545,26.256,177.258,27.969,177.258,30.353
			L177.258,30.353z M177.258,16.874c0,2.234-1.713,4.095-4.021,4.095c-2.232,0-4.021-1.86-4.021-4.095v-1.564
			c0-2.233,1.789-4.022,4.021-4.022c2.309,0,4.021,1.789,4.021,4.022V16.874z"/>
	</g>
	<g>
		<path fill="#3BB9DF" d="M283.453,57.53v2.306h-12.914c-0.018-0.577,0.074-1.133,0.279-1.666c0.328-0.88,0.855-1.746,1.58-2.599
			c0.725-0.854,1.77-1.84,3.139-2.959c2.123-1.741,3.559-3.121,4.305-4.139c0.746-1.017,1.119-1.979,1.119-2.886
			c0-0.95-0.34-1.752-1.02-2.405s-1.566-0.979-2.658-0.979c-1.156,0-2.08,0.347-2.773,1.039c-0.691,0.693-1.043,1.653-1.053,2.879
			l-2.465-0.253c0.168-1.839,0.805-3.241,1.906-4.205s2.58-1.446,4.438-1.446c1.875,0,3.359,0.521,4.451,1.56
			c1.094,1.04,1.641,2.328,1.641,3.865c0,0.782-0.16,1.551-0.48,2.306c-0.32,0.756-0.852,1.551-1.592,2.386
			c-0.742,0.836-1.977,1.981-3.699,3.438c-1.439,1.209-2.363,2.028-2.773,2.459c-0.408,0.432-0.746,0.864-1.012,1.3H283.453z"/>
		<path fill="#3BB9DF" d="M287.373,59.835v-2.732h2.73v2.732H287.373z"/>
		<path fill="#3BB9DF" d="M293.609,50.2c0-2.311,0.238-4.17,0.713-5.578c0.477-1.408,1.182-2.494,2.119-3.259
			c0.938-0.764,2.117-1.146,3.539-1.146c1.049,0,1.969,0.211,2.76,0.634c0.791,0.422,1.443,1.03,1.959,1.825
			c0.516,0.796,0.92,1.765,1.213,2.906s0.439,2.681,0.439,4.618c0,2.292-0.236,4.143-0.707,5.551s-1.174,2.496-2.111,3.266
			c-0.938,0.769-2.121,1.152-3.553,1.152c-1.883,0-3.363-0.675-4.438-2.025C294.254,56.517,293.609,53.87,293.609,50.2z
			 M296.076,50.2c0,3.207,0.375,5.342,1.125,6.404c0.752,1.061,1.678,1.592,2.779,1.592s2.029-0.533,2.779-1.599
			c0.75-1.066,1.127-3.199,1.127-6.397c0-3.217-0.377-5.354-1.127-6.411s-1.686-1.586-2.805-1.586c-1.104,0-1.982,0.467-2.641,1.399
			C296.488,44.792,296.076,46.992,296.076,50.2z"/>
	</g>
</g>
</svg>
